<svg xmlns="http://www.w3.org/2000/svg" width="16" height="16" fill="none" viewBox="0 0 16 16">
  <path fill="#fff" d="M1 8l-.705-.256A.75.75 0 00.25 8H1zm14 0h.75a.75.75 0 00-.045-.256L15 8zm-3.5 0v-.75a.75.75 0 00-.69.455L11.5 8zm-7 0l.69-.295a.75.75 0 00-.69-.455V8zm7.954-7l.705-.256a.75.75 0 00-.705-.494V1zm1.796 9.227a.75.75 0 001.5 0h-1.5zM3.545 1V.25a.75.75 0 00-.704.494L3.545 1zM.25 10.227a.75.75 0 001.5 0H.25zM15 8h-.75V13.092h1.5v-.006-.005-.006-.006-.006-.006-.006-.006-.006-.007-.006-.006-.007-.006-.007-.007-.006-.007-.007-.007-.007-.007-.007-.008-.007-.007-.008-.007-.008-.007-.008-.008-.007-.008-.008-.008-.008-.008-.008-.009-.008-.008-.009-.008-.008-.01-.008-.008-.01-.008-.009-.009-.009-.009-.009-.009-.01-.008-.01-.009-.01-.009-.01-.009-.01-.01-.009-.01-.01-.01-.01-.01-.01-.01-.01-.01-.01-.01-.01-.01-.011-.01-.011-.01-.011-.01-.011-.011-.01-.012-.01-.011-.011-.011-.011-.011-.011-.012-.01-.012-.011-.012-.01-.012-.012-.011-.012-.011-.012-.011-.012-.012-.011-.012-.012-.012-.012-.011-.012-.012-.012-.012-.012-.013-.012-.012-.012-.012-.013-.012-.012-.012-.013-.012-.013-.012-.013-.012-.013-.012-.013-.012-.013-.013-.012-.013-.013-.013-.012-.013-.013-.013-.013-.013-.013-.013-.013-.013-.013-.013-.013-.013-.013-.013-.013-.014-.013-.013-.013-.013-.014-.013-.013-.014-.013-.013-.014-.013-.013-.014-.013-.014-.013-.013-.014-.013-.014-.013-.014-.013-.014-.013-.014-.014-.013-.014-.013-.014-.013-.014-.014-.013-.014-.013-.014-.014-.013-.014-.014-.014-.013-.014-.014-.013-.014-.014-.013-.014-.014-.013-.014-.014-.014-.013-.014-.014-.013-.014-.014-.013-.014-.014-.013-.014-.014-.013-.014-.014-.013-.014-.014-.013-.014-.014-.013-.014-.013-.014-.014-.013-.014-.013-.014-.013-.014-.014-.013-.013-.014-.014-.013-.013-.014-.013-.014-.013-.013-.014-.013-.014-.013-.013-.013-.014-.013-.013-.013-.014-.013-.013-.013-.013-.013-.013V9.8v-.013-.013-.013-.013-.013-.013-.012-.013-.013-.013-.013-.013-.013-.012-.013-.013-.012-.013-.013-.012-.013-.012-.013-.012-.013-.012-.013-.012-.012-.013-.012-.012-.013-.012-.012-.012-.012-.012-.012-.012-.012-.012-.012-.012-.012-.012-.011-.012-.012-.011-.012-.012-.011-.012-.011-.011V9.1 9.09v-.011-.012-.011-.011-.011-.011-.011-.012-.01-.011-.011-.011-.011-.01-.011-.011-.01-.011-.01-.011-.01-.011-.01-.011-.01-.01-.01-.01-.01-.01-.01-.01-.01-.01-.01-.01-.01-.01-.009-.01-.009-.01-.009-.009-.01-.008-.01-.009-.009-.009-.008-.01-.008-.009-.009-.008-.009-.008V8.5v-.008-.009-.008-.008-.008-.008-.008-.008-.008-.008-.008-.008-.007-.008-.008-.007-.007-.008-.007-.007-.007-.008-.007-.007-.006-.007-.007-.007-.006-.007-.006-.007-.006-.007-.006-.006-.006-.006-.006-.006-.006-.005-.006-.005-.006-.005-.006-.005-.005-.005-.005-.005-.005-.005-.005-.005-.004-.005-.004-.004-.005-.004-.004-.004-.004-.004-.004-.004-.003-.004-.003-.004-.003-.003-.003-.003-.003-.003-.003-.003-.003-.002-.003-.002-.002-.002-.003-.002-.002-.002-.001-.002-.002-.001-.002-.002-.001-.001-.001-.001-.001-.001V8L15 7.999zm-.75 5.09c0 .234-.124.53-.377.783s-.549.377-.782.377v1.5c.721 0 1.38-.353 1.843-.816.463-.463.816-1.122.816-1.843h-1.5zM2.91 14.25c-.234 0-.53-.124-.783-.377s-.377-.549-.377-.782H.25c0 .721.353 1.38.816 1.843.463.463 1.122.816 1.843.816v-1.5zm-1.16-1.16v-.005-.005-.006-.006-.005-.006-.006-.005-.006-.006-.006-.006-.005-.006-.006-.006-.006-.006-.006-.006-.006-.006-.006-.006-.006-.006-.006-.006-.006-.007-.006-.006-.006-.006-.007-.006-.006-.007-.006-.006-.007-.006-.006-.007-.006-.007-.006-.007-.006-.007-.006-.007-.006-.007-.007-.006-.007-.007-.006-.007-.007-.007-.006-.007-.007-.007-.007-.007-.007-.006-.007-.007-.007-.007-.007-.007-.007-.007-.007-.008-.007-.007-.007-.007-.007-.007-.008-.007-.007-.007-.008-.007-.007-.008-.007-.007-.008-.007-.008-.007-.008-.007-.008-.007-.008-.007-.008-.007-.008-.008-.007-.008-.008-.007-.008-.008-.008-.007-.008-.008-.008-.008-.008-.007-.008-.008-.008-.008-.008-.008-.008-.008-.008-.008-.008-.008-.008-.009-.008-.008-.008-.008-.008-.009-.008-.008-.009-.008-.008-.009-.008-.008-.009-.008V12v-.009-.008-.009-.008-.009-.008-.009-.008-.01-.008-.008-.009-.008-.01-.008-.009-.008-.009-.009-.008-.01-.008-.009-.009-.009-.008-.01-.008-.01-.008-.01-.008-.009-.009-.009-.01-.008-.01-.008-.01-.008-.01-.009-.009-.01-.008-.01-.009-.009-.01-.009-.009-.01-.008-.01-.01-.009-.009-.01-.009-.01-.009-.01-.009-.01-.009-.01-.009-.01-.01-.009-.01-.009-.01-.01-.009-.01-.01-.01-.009-.01-.01-.01-.01-.009-.01-.01-.01-.01-.01-.01-.01-.01-.01-.01-.01-.01-.01-.01-.01-.01-.01-.01-.01-.01-.01-.01-.01-.01-.011-.01-.01-.01-.011-.01-.01-.011-.01-.01-.011-.01-.011-.01-.01-.011-.01-.011-.01-.011-.01-.011-.011-.01-.011-.01-.011-.011-.01-.011-.011-.01-.012-.01-.011-.01-.012-.01-.011-.011-.011-.01-.012-.01-.011-.011-.011-.011-.011-.011-.011-.011-.011-.011-.011-.012-.01-.012-.01-.012-.011-.011-.011-.012-.01-.012-.011-.011-.012-.011-.011-.012-.011-.011-.012-.011-.011-.012-.011-.012-.011-.011-.012-.011-.012-.011-.012-.012-.011-.012-.011-.012-.011-.012-.012-.011-.012-.012-.011-.012-.012-.012-.011-.012-.012-.012V9.8 9.79v-.012-.012-.012-.012-.012-.012-.012-.012-.011-.012-.012-.012-.012-.012-.012-.013-.012-.012-.012-.012-.012-.012-.012V9.5v-.013-.012-.012-.012-.012-.013-.012-.012-.013-.012-.012-.012-.013-.012-.012-.013-.012-.013-.012-.013-.012-.012-.013-.012-.013-.012-.013-.012-.013-.013-.012-.013-.012-.013-.013-.012-.013-.013-.012-.013-.013-.012-.013-.013-.013-.013-.012V8.9v-.013-.013-.013-.012-.013-.013-.013-.013-.013-.013-.013-.013-.013-.013-.013-.013-.013-.013-.013-.013-.013-.013-.013-.013-.014-.013-.013-.013-.013-.013-.014-.013-.013-.013-.014-.013-.013-.013-.014-.013-.013-.014-.013-.013-.014-.013-.014-.013-.013-.014-.013-.014-.013-.014-.013-.014-.013-.014-.013-.014-.014-.013-.014-.013-.014-.014-.013V8H.25V13.091h1.5zM8 10.978a4.474 4.474 0 003.235-1.333 5.027 5.027 0 00.887-1.207 3 3 0 00.064-.135l.002-.004v-.001h.001c0-.001 0-.002-.689-.297l-.69-.296h.001v-.002l.001-.001s0-.001 0 0l-.003.007a2.791 2.791 0 01-.136.245c-.106.171-.27.401-.499.63A2.975 2.975 0 018 9.477v1.5zm3.5-2.227H15v-1.5h-3.5v1.5zM1 8.75h3.5v-1.5H1v1.5zM4.5 8a73.241 73.241 0 00-.689.297v.001l.003.004a1.383 1.383 0 00.018.04 4.291 4.291 0 00.22.4c.152.247.385.574.713.902A4.474 4.474 0 008 10.977v-1.5a2.975 2.975 0 01-2.174-.894 3.526 3.526 0 01-.612-.828 1.503 1.503 0 01-.026-.055.086.086 0 01.001.004L4.5 8zm8.59 6.25H2.91v1.5H13.091v-1.5zM11.75 1.256l2.545 7 1.41-.512-2.546-7-1.41.512zM14.25 8v2.227h1.5V8h-1.5zM2.84.744l-2.545 7 1.41.512 2.545-7L2.84.744zM.25 8v2.227h1.5V8H.25zm3.295-6.25h8.91V.25h-8.91v1.5z"/>
</svg>
