<svg width="28" height="20" viewBox="0 0 28 20" fill="none" xmlns="http://www.w3.org/2000/svg">
<path d="M12.8616 11.2119L12.2924 12.0341L12.8616 11.2119ZM15.1384 11.2119L15.7076 12.0341L15.7076 12.0341L15.1384 11.2119ZM3 2H25V0H3V2ZM26 3V17H28V3H26ZM25 18H3V20H25V18ZM2 17V3H0V17H2ZM3 18C2.44772 18 2 17.5523 2 17H0C0 18.6569 1.34315 20 3 20V18ZM26 17C26 17.5523 25.5523 18 25 18V20C26.6569 20 28 18.6569 28 17H26ZM25 2C25.5523 2 26 2.44772 26 3H28C28 1.34315 26.6569 0 25 0V2ZM3 0C1.34315 0 0 1.34315 0 3H2C2 2.44772 2.44772 2 3 2V0ZM0.43079 3.82219L12.2924 12.0341L13.4308 10.3897L1.56921 2.17781L0.43079 3.82219ZM15.7076 12.0341L27.5692 3.82219L26.4308 2.17781L14.5692 10.3897L15.7076 12.0341ZM12.2924 12.0341C13.3197 12.7453 14.6803 12.7453 15.7076 12.0341L14.5692 10.3897C14.2268 10.6267 13.7732 10.6267 13.4308 10.3897L12.2924 12.0341Z" fill="white"/>
</svg>
