<svg width="36" height="36" viewBox="0 0 36 36" fill="none" xmlns="http://www.w3.org/2000/svg">
<path d="M17.0075 3.6804L16.7134 2.72463L17.0075 3.6804ZM18.9925 3.6804L18.6985 4.63618L18.9925 3.6804ZM31.8308 7.63065L32.1249 6.67487L32.1249 6.67487L31.8308 7.63065ZM4.16915 7.63065L3.87507 6.67487L4.16915 7.63065ZM5.11394 8.21066C4.67799 7.87158 4.04972 7.95012 3.71065 8.38607C3.37158 8.82201 3.45011 9.45029 3.88606 9.78936L5.11394 8.21066ZM14.625 16.875L14.0111 17.6644C14.1866 17.8009 14.4026 17.875 14.625 17.875V16.875ZM21.375 16.875V17.875C21.5974 17.875 21.8134 17.8009 21.9889 17.6644L21.375 16.875ZM32.1139 9.78936C32.5499 9.45029 32.6284 8.82201 32.2894 8.38607C31.9503 7.95012 31.322 7.87158 30.8861 8.21066L32.1139 9.78936ZM31.625 8.7059V25.875H33.625V8.7059H31.625ZM30.375 27.125H5.625V29.125H30.375V27.125ZM4.375 25.875V8.7059H2.375V25.875H4.375ZM4.46324 8.58643L17.3015 4.63618L16.7134 2.72463L3.87507 6.67487L4.46324 8.58643ZM18.6985 4.63618L31.5368 8.58643L32.1249 6.67487L19.2866 2.72463L18.6985 4.63618ZM17.3015 4.63618C17.7567 4.49615 18.2433 4.49615 18.6985 4.63618L19.2866 2.72463C18.4483 2.46667 17.5517 2.46667 16.7134 2.72463L17.3015 4.63618ZM5.625 27.125C4.93464 27.125 4.375 26.5654 4.375 25.875H2.375C2.375 27.6699 3.83007 29.125 5.625 29.125V27.125ZM31.625 25.875C31.625 26.5654 31.0654 27.125 30.375 27.125V29.125C32.1699 29.125 33.625 27.6699 33.625 25.875H31.625ZM33.625 8.7059C33.625 7.77302 33.0166 6.94922 32.1249 6.67487L31.5368 8.58643C31.5892 8.60257 31.625 8.65103 31.625 8.7059H33.625ZM4.375 8.7059C4.375 8.65103 4.41079 8.60257 4.46324 8.58643L3.87507 6.67487C2.98343 6.94922 2.375 7.77302 2.375 8.7059H4.375ZM3.88606 9.78936L14.0111 17.6644L15.2389 16.0857L5.11394 8.21066L3.88606 9.78936ZM14.625 17.875H21.375V15.875H14.625V17.875ZM21.9889 17.6644L32.1139 9.78936L30.8861 8.21066L20.7611 16.0857L21.9889 17.6644Z" fill="white"/>
</svg>
