<svg width="37" height="39" viewBox="0 0 37 39" fill="none" xmlns="http://www.w3.org/2000/svg">
<g clip-path="url(#clip0_307_581)">
<path d="M25.1485 31.7888C28.0388 30.1555 30.286 27.6141 31.5416 24.5588C32.7972 21.5036 32.9911 18.1051 32.0931 14.8906C31.1952 11.6761 29.2556 8.82514 26.5752 6.77993C23.8948 4.73472 20.6233 3.60954 17.2682 3.5789C13.9132 3.54826 10.6619 4.61388 8.01883 6.61047C5.37572 8.60707 3.48843 11.4231 2.64966 14.6217C1.8109 17.8204 2.06754 21.2229 3.37978 24.3017C4.69202 27.3804 6.98652 29.9632 9.90743 31.6496M25.1485 31.7888L25.95 26.256M25.1485 31.7888L29.5445 32.9944" stroke="white" stroke-width="4" stroke-linecap="round" stroke-linejoin="round"/>
</g>
<defs>
<clipPath id="clip0_307_581">
<rect width="39" height="37" fill="white" transform="translate(37) rotate(90)"/>
</clipPath>
</defs>
</svg>
