<svg width="36" height="33" viewBox="0 0 36 33" fill="none" xmlns="http://www.w3.org/2000/svg">
<path d="M4.34128 19.9909C5.0597 23.2321 6.83434 26.1233 9.38998 28.2161C11.9456 30.309 15.1394 31.4865 18.476 31.5661C21.8127 31.6457 25.1057 30.6228 27.8443 28.6562C30.5829 26.6896 32.6141 23.8892 33.6228 20.6892C34.6316 17.4892 34.5615 14.0685 33.4235 10.9577C32.2855 7.84685 30.1431 5.21969 27.3286 3.48368C24.5142 1.74768 21.1849 0.999831 17.8572 1.35614C14.5295 1.71244 11.3893 3.15299 8.92372 5.45435M4.34128 19.9909L9.39912 22.3727M4.34128 19.9909L1.90484 23.8434" stroke="#62F030" stroke-width="2" stroke-linecap="round" stroke-linejoin="round"/>
</svg>
