<svg width="37" height="39" viewBox="0 0 37 39" fill="none" xmlns="http://www.w3.org/2000/svg">
<g clip-path="url(#clip0_307_581)">
<path d="M25.9281 7.15838C23.0685 5.47199 19.744 4.79654 16.4702 5.23678C13.1965 5.67701 10.1564 7.20833 7.82152 9.59324C5.48664 11.9781 3.98745 15.0834 3.55645 18.4273C3.12545 21.7712 3.78673 25.1669 5.43774 28.0878C7.08875 31.0087 9.6372 33.2916 12.6879 34.5823C15.7385 35.873 19.1209 36.0994 22.3104 35.2265C25.4999 34.3535 28.3183 32.43 30.3284 29.7542C32.3385 27.0784 33.4281 23.7999 33.4281 20.4271M25.9281 7.15838L20.7358 9.23067M25.9281 7.15838L24.7742 2.74854" stroke="white" stroke-width="4" stroke-linecap="round" stroke-linejoin="round"/>
</g>
<defs>
<clipPath id="clip0_307_581">
<rect width="39" height="37" fill="white" transform="translate(37) rotate(90)"/>
</clipPath>
</defs>
</svg>
