<svg xmlns="http://www.w3.org/2000/svg" width="16" height="16" fill="none" viewBox="0 0 16 16">
  <path stroke="#146BE2" stroke-linecap="round" stroke-linejoin="round" stroke-width="1.5" d="M7.729 1.182a.293.293 0 01.542 0l1.848 4.203a.3.3 0 00.236.18l4.381.545c.253.032.355.36.168.541l-3.24 3.143a.323.323 0 00-.09.29l.86 4.541c.05.262-.216.465-.438.334l-3.85-2.26a.286.286 0 00-.292 0l-3.85 2.26c-.222.13-.488-.072-.438-.334l.86-4.54a.323.323 0 00-.09-.291L1.096 6.65c-.187-.181-.085-.51.168-.54l4.381-.546a.3.3 0 00.236-.18l1.848-4.203z"/>
</svg>
