<svg xmlns="http://www.w3.org/2000/svg" width="22" height="22" fill="none" viewBox="0 0 22 22">
  <path fill="#fff" d="M3.761 18.731l-.738.134a.75.75 0 00.08.225l.658-.359zm14.728 0l.658.36a.749.749 0 00.08-.226l-.738-.134zm-4.556-7.468a.75.75 0 10-1.014-1.106l1.014 1.106zm-5.616 3.116a.75.75 0 101.014 1.105L8.317 14.38zm1.014-4.222a.75.75 0 00-1.014 1.106l1.014-1.106zm3.588 5.327a.75.75 0 101.014-1.105l-1.014 1.105zM20.5 3.533c0-.079.046.06-.427.34-.424.25-1.086.502-1.97.724-1.758.44-4.225.72-6.978.72v1.5c2.839 0 5.434-.288 7.341-.765.948-.237 1.769-.532 2.37-.887C21.388 4.838 22 4.31 22 3.533h-1.5zm-9.375 1.783c-2.753 0-5.22-.28-6.977-.72-.885-.22-1.547-.472-1.97-.723-.474-.28-.428-.419-.428-.34H.25c0 .778.612 1.305 1.164 1.632.601.355 1.422.65 2.37.887 1.907.477 4.502.764 7.341.764v-1.5zM1.75 3.533c0 .079-.046-.06.428-.34.423-.25 1.085-.502 1.97-.724 1.757-.44 4.224-.719 6.977-.719V.25c-2.839 0-5.434.287-7.341.764-.948.237-1.769.532-2.37.888C.862 2.228.25 2.755.25 3.533h1.5zm9.375-1.783c2.753 0 5.22.28 6.977.72.885.22 1.547.472 1.97.723.474.28.428.419.428.34H22c0-.778-.613-1.305-1.164-1.631-.601-.356-1.422-.65-2.37-.888C16.56.537 13.965.25 11.125.25v1.5zM.262 3.667l2.761 15.198 1.476-.268L1.738 3.4l-1.476.268zm18.965 15.198l2.76-15.198-1.475-.268-2.761 15.198 1.476.268zM3.76 18.731a24.276 24.276 0 00-.656.363l.002.004.005.009a.837.837 0 00.039.062c.021.032.048.068.082.11.067.082.16.18.288.288.255.217.642.466 1.223.703 1.156.471 3.102.9 6.381.9v-1.5c-3.164 0-4.9-.416-5.815-.789-.455-.185-.7-.358-.82-.458a.766.766 0 01-.096-.094l.002.003.01.015a.408.408 0 01.006.011l.004.007.002.004v.002c.001 0 .002.001-.657.36zm7.364 2.439c3.28 0 5.225-.429 6.381-.9.58-.237.968-.486 1.223-.703a2.24 2.24 0 00.288-.288 1.475 1.475 0 00.121-.172l.005-.009.002-.004.001-.002s.001-.002-.657-.36a25.83 25.83 0 01-.657-.363l.002-.004.004-.006a.285.285 0 01.016-.027l.002-.003a.773.773 0 01-.097.094c-.118.1-.364.273-.82.458-.914.373-2.65.789-5.814.789v1.5zm1.794-11.013L8.317 14.38l1.014 1.105 4.602-4.221-1.014-1.106zm-4.602 1.106l4.602 4.221 1.014-1.105-4.602-4.222-1.014 1.106z"/>
</svg>
