<svg width="28" height="29" viewBox="0 0 28 29" fill="none" xmlns="http://www.w3.org/2000/svg">
<path d="M4.54545 25.6522L3.55924 25.8176C3.57582 25.9165 3.60717 26.0123 3.65223 26.1018L4.54545 25.6522ZM23.4545 25.6522L24.3478 26.1018C24.3928 26.0123 24.4242 25.9165 24.4408 25.8176L23.4545 25.6522ZM17.6593 15.2095C18.0511 14.8203 18.0532 14.1871 17.664 13.7953C17.2748 13.4034 16.6416 13.4013 16.2498 13.7905L17.6593 15.2095ZM10.3407 19.6601C9.94889 20.0493 9.94677 20.6825 10.336 21.0743C10.7252 21.4661 11.3584 21.4683 11.7502 21.079L10.3407 19.6601ZM11.7502 13.7905C11.3584 13.4013 10.7252 13.4034 10.336 13.7953C9.94677 14.1871 9.94889 14.8203 10.3407 15.2095L11.7502 13.7905ZM16.2498 21.079C16.6416 21.4683 17.2748 21.4661 17.664 21.0743C18.0532 20.6825 18.0511 20.0493 17.6593 19.6601L16.2498 21.079ZM26 4.52174C26 4.47519 26.0215 4.67742 25.439 5.05047C24.9029 5.39387 24.0608 5.74069 22.9309 6.04678C20.6856 6.65503 17.5277 7.04348 14 7.04348V9.04348C17.652 9.04348 20.9941 8.64356 23.4539 7.97719C24.6765 7.64597 25.7382 7.23392 26.5177 6.73464C27.251 6.26503 28 5.54078 28 4.52174H26ZM14 7.04348C10.4723 7.04348 7.31438 6.65503 5.06909 6.04678C3.93923 5.74069 3.0971 5.39387 2.56095 5.05047C1.9785 4.67742 2 4.47519 2 4.52174H0C0 5.54078 0.749038 6.26503 1.48226 6.73464C2.26178 7.23392 3.32346 7.64597 4.54613 7.97719C7.00591 8.64356 10.348 9.04348 14 9.04348V7.04348ZM2 4.52174C2 4.56828 1.9785 4.36606 2.56095 3.993C3.0971 3.64961 3.93923 3.30279 5.06909 2.9967C7.31438 2.38845 10.4723 2 14 2V0C10.348 0 7.00591 0.399922 4.54613 1.06628C3.32346 1.39751 2.26178 1.80956 1.48226 2.30883C0.749038 2.77845 0 3.50269 0 4.52174H2ZM14 2C17.5277 2 20.6856 2.38845 22.9309 2.9967C24.0608 3.30279 24.9029 3.64961 25.439 3.993C26.0215 4.36606 26 4.56828 26 4.52174H28C28 3.50269 27.251 2.77845 26.5177 2.30883C25.7382 1.80956 24.6765 1.39751 23.4539 1.06628C20.9941 0.399922 17.652 0 14 0V2ZM0.0137862 4.68721L3.55924 25.8176L5.53167 25.4867L1.98621 4.35626L0.0137862 4.68721ZM24.4408 25.8176L27.9862 4.68721L26.0138 4.35626L22.4683 25.4867L24.4408 25.8176ZM4.54545 25.6522C3.65223 26.1018 3.65286 26.103 3.65349 26.1043C3.6537 26.1047 3.65434 26.1059 3.65477 26.1068C3.65564 26.1085 3.65654 26.1102 3.65746 26.112C3.65929 26.1156 3.66122 26.1193 3.66326 26.1231C3.66732 26.1307 3.67178 26.1389 3.67666 26.1476C3.68643 26.1651 3.69787 26.1846 3.71116 26.206C3.73775 26.2488 3.77167 26.2991 3.81433 26.3556C3.89983 26.4689 4.01933 26.6055 4.18356 26.7561C4.51268 27.0579 5.0135 27.4084 5.76659 27.7409C7.26524 28.4025 9.77908 29 14 29V27C9.94819 27 7.73476 26.4236 6.57432 25.9113C5.99786 25.6568 5.68618 25.4204 5.53519 25.282C5.45936 25.2124 5.4219 25.1656 5.41045 25.1505C5.40465 25.1428 5.40509 25.1426 5.41034 25.1511C5.41295 25.1553 5.41674 25.1616 5.42153 25.1702C5.42392 25.1744 5.42656 25.1793 5.42943 25.1847C5.43086 25.1874 5.43235 25.1902 5.43389 25.1932C5.43466 25.1947 5.43545 25.1962 5.43625 25.1978C5.43664 25.1985 5.43725 25.1997 5.43745 25.2001C5.43806 25.2013 5.43868 25.2026 4.54545 25.6522ZM14 29C18.2209 29 20.7348 28.4025 22.2334 27.7409C22.9865 27.4084 23.4873 27.0579 23.8164 26.7561C23.9807 26.6055 24.1002 26.4689 24.1857 26.3556C24.2283 26.2991 24.2622 26.2488 24.2888 26.206C24.3021 26.1846 24.3136 26.1651 24.3233 26.1476C24.3282 26.1389 24.3327 26.1307 24.3367 26.1231C24.3388 26.1193 24.3407 26.1156 24.3425 26.112C24.3435 26.1102 24.3444 26.1085 24.3452 26.1068C24.3457 26.1059 24.3463 26.1047 24.3465 26.1043C24.3471 26.103 24.3478 26.1018 23.4545 25.6522C22.5613 25.2026 22.5619 25.2013 22.5625 25.2001C22.5627 25.1997 22.5634 25.1985 22.5638 25.1978C22.5646 25.1962 22.5653 25.1947 22.5661 25.1932C22.5676 25.1902 22.5691 25.1874 22.5706 25.1847C22.5734 25.1793 22.5761 25.1744 22.5785 25.1702C22.5833 25.1616 22.587 25.1553 22.5897 25.1511C22.5949 25.1426 22.5954 25.1428 22.5895 25.1505C22.5781 25.1656 22.5406 25.2124 22.4648 25.282C22.3138 25.4204 22.0021 25.6568 21.4257 25.9113C20.2652 26.4236 18.0518 27 14 27V29ZM16.2498 13.7905L10.3407 19.6601L11.7502 21.079L17.6593 15.2095L16.2498 13.7905ZM10.3407 15.2095L16.2498 21.079L17.6593 19.6601L11.7502 13.7905L10.3407 15.2095Z" fill="white"/>
</svg>
