<svg width="22" height="22" viewBox="0 0 22 22" fill="none" xmlns="http://www.w3.org/2000/svg">
<path d="M3.76136 18.7313L3.02344 18.8654C3.03775 18.9441 3.06455 19.02 3.10284 19.0902L3.76136 18.7313ZM18.4886 18.7313L19.1472 19.0902C19.1855 19.02 19.2123 18.9441 19.2266 18.8654L18.4886 18.7313ZM13.9331 11.2627C14.2384 10.9827 14.2588 10.5083 13.9788 10.203C13.6988 9.89777 13.2244 9.87731 12.9191 10.1573L13.9331 11.2627ZM8.31687 14.3791C8.01163 14.6591 7.99117 15.1335 8.27118 15.4387C8.55118 15.744 9.02561 15.7644 9.33085 15.4844L8.31687 14.3791ZM9.33085 10.1573C9.02561 9.87731 8.55118 9.89777 8.27118 10.203C7.99117 10.5083 8.01163 10.9827 8.31687 11.2627L9.33085 10.1573ZM12.9191 15.4844C13.2244 15.7644 13.6988 15.744 13.9788 15.4387C14.2588 15.1335 14.2384 14.6591 13.9331 14.3791L12.9191 15.4844ZM20.5 3.53304C20.5 3.45417 20.5459 3.59351 20.0725 3.87349C19.6492 4.12386 18.9868 4.37536 18.1024 4.5966C16.3453 5.0362 13.8781 5.31609 11.125 5.31609V6.81609C13.9638 6.81609 16.5591 6.52894 18.4665 6.05175C19.4144 5.8146 20.2347 5.52028 20.8361 5.16455C21.3875 4.83843 22 4.31139 22 3.53304H20.5ZM11.125 5.31609C8.37194 5.31609 5.90471 5.0362 4.14757 4.5966C3.26323 4.37536 2.60079 4.12386 2.1775 3.87349C1.70414 3.59351 1.75 3.45417 1.75 3.53304H0.25C0.25 4.31139 0.862495 4.83843 1.41385 5.16455C2.01526 5.52028 2.83559 5.8146 3.78352 6.05175C5.69091 6.52894 8.28618 6.81609 11.125 6.81609V5.31609ZM1.75 3.53304C1.75 3.61191 1.70414 3.47258 2.1775 3.1926C2.60079 2.94223 3.26323 2.69073 4.14757 2.46949C5.90471 2.02989 8.37194 1.75 11.125 1.75V0.25C8.28618 0.25 5.69091 0.53715 3.78352 1.01433C2.83559 1.25148 2.01526 1.54581 1.41385 1.90154C0.862495 2.22765 0.25 2.75469 0.25 3.53304H1.75ZM11.125 1.75C13.8781 1.75 16.3453 2.02989 18.1024 2.46949C18.9868 2.69073 19.6492 2.94223 20.0725 3.1926C20.5459 3.47258 20.5 3.61191 20.5 3.53304H22C22 2.75469 21.3875 2.22765 20.8361 1.90154C20.2347 1.54581 19.4144 1.25148 18.4665 1.01433C16.5591 0.53715 13.9638 0.25 11.125 0.25V1.75ZM0.262081 3.66712L3.02344 18.8654L4.49928 18.5972L1.73792 3.39897L0.262081 3.66712ZM19.2266 18.8654L21.9879 3.66712L20.5121 3.39897L17.7507 18.5972L19.2266 18.8654ZM3.76136 18.7313C3.10284 19.0902 3.10336 19.0912 3.10388 19.0922C3.10406 19.0925 3.10459 19.0934 3.10495 19.0941C3.10568 19.0954 3.10642 19.0968 3.10718 19.0981C3.1087 19.1008 3.1103 19.1036 3.11197 19.1066C3.11532 19.1124 3.11898 19.1186 3.12296 19.1251C3.13092 19.1383 3.14017 19.1528 3.15085 19.1687C3.17221 19.2005 3.1992 19.2374 3.23287 19.2786C3.30033 19.3611 3.39375 19.4596 3.5212 19.5675C3.77632 19.7836 4.16306 20.0334 4.74384 20.2702C5.89961 20.7414 7.8456 21.17 11.125 21.17V19.67C7.96122 19.67 6.22539 19.2543 5.31013 18.8812C4.85541 18.6958 4.60933 18.5234 4.49052 18.4228C4.431 18.3724 4.40217 18.339 4.39413 18.3291C4.39005 18.3241 4.39096 18.3248 4.3957 18.3318C4.39806 18.3354 4.40136 18.3404 4.40544 18.3472C4.40749 18.3505 4.40972 18.3543 4.41214 18.3585C4.41334 18.3606 4.4146 18.3628 4.41589 18.3651C4.41654 18.3663 4.41719 18.3675 4.41786 18.3687C4.41819 18.3693 4.4187 18.3702 4.41887 18.3705C4.41938 18.3714 4.41989 18.3724 3.76136 18.7313ZM11.125 21.17C14.4044 21.17 16.3504 20.7414 17.5062 20.2702C18.0869 20.0334 18.4737 19.7836 18.7288 19.5675C18.8562 19.4596 18.9497 19.3611 19.0171 19.2786C19.0508 19.2374 19.0778 19.2005 19.0992 19.1687C19.1098 19.1528 19.1191 19.1383 19.127 19.1251C19.131 19.1186 19.1347 19.1124 19.138 19.1066C19.1397 19.1036 19.1413 19.1008 19.1428 19.0981C19.1436 19.0968 19.1443 19.0954 19.145 19.0941C19.1454 19.0934 19.1459 19.0925 19.1461 19.0922C19.1466 19.0912 19.1472 19.0902 18.4886 18.7313C17.8301 18.3724 17.8306 18.3714 17.8311 18.3705C17.8313 18.3702 17.8318 18.3693 17.8321 18.3687C17.8328 18.3675 17.8335 18.3663 17.8341 18.3651C17.8354 18.3628 17.8367 18.3606 17.8379 18.3585C17.8403 18.3543 17.8425 18.3505 17.8446 18.3472C17.8486 18.3404 17.8519 18.3354 17.8543 18.3318C17.859 18.3248 17.86 18.3241 17.8559 18.3291C17.8478 18.339 17.819 18.3724 17.7595 18.4228C17.6407 18.5234 17.3946 18.6958 16.9399 18.8812C16.0246 19.2543 14.2888 19.67 11.125 19.67V21.17ZM12.9191 10.1573L8.31687 14.3791L9.33085 15.4844L13.9331 11.2627L12.9191 10.1573ZM8.31687 11.2627L12.9191 15.4844L13.9331 14.3791L9.33085 10.1573L8.31687 11.2627Z" fill="white"/>
</svg>
