<svg width="36" height="36" viewBox="0 0 36 36" fill="none" xmlns="http://www.w3.org/2000/svg">
<path d="M18 19.6875V10.6875M32.625 18C32.625 21.8788 31.0842 25.5987 28.3414 28.3414C25.5987 31.0842 21.8788 32.625 18 32.625C14.1212 32.625 10.4013 31.0842 7.65856 28.3414C4.91584 25.5987 3.375 21.8788 3.375 18C3.375 14.1212 4.91584 10.4013 7.65856 7.65857C10.4013 4.91585 14.1212 3.375 18 3.375C21.8788 3.375 25.5987 4.91584 28.3414 7.65856C31.0842 10.4013 32.625 14.1212 32.625 18Z" stroke="#DB1D1D" stroke-width="2" stroke-linecap="round" stroke-linejoin="round"/>
<path d="M19.1875 24.75C19.1875 25.4058 18.6558 25.9375 18 25.9375C17.3442 25.9375 16.8125 25.4058 16.8125 24.75C16.8125 24.0942 17.3442 23.5625 18 23.5625C18.6558 23.5625 19.1875 24.0942 19.1875 24.75Z" fill="#DB1D1D" stroke="#DB1D1D"/>
</svg>
