<svg width="14" height="14" viewBox="0 0 14 14" fill="none" xmlns="http://www.w3.org/2000/svg">
<path d="M7 7.65625V4.15625M12.6875 7C12.6875 8.50842 12.0883 9.95506 11.0217 11.0217C9.95506 12.0883 8.50842 12.6875 7 12.6875C5.49158 12.6875 4.04494 12.0883 2.97833 11.0217C1.91172 9.95506 1.3125 8.50842 1.3125 7C1.3125 5.49158 1.91172 4.04494 2.97833 2.97833C4.04494 1.91172 5.49158 1.3125 7 1.3125C8.50842 1.3125 9.95506 1.91172 11.0217 2.97833C12.0883 4.04494 12.6875 5.49158 12.6875 7Z" stroke="#146BE2" stroke-width="1.5" stroke-linecap="round" stroke-linejoin="round"/>
<path d="M6.90625 9.625C6.90625 9.57322 6.94822 9.53125 7 9.53125C7.05178 9.53125 7.09375 9.57322 7.09375 9.625C7.09375 9.67678 7.05178 9.71875 7 9.71875C6.94822 9.71875 6.90625 9.67678 6.90625 9.625Z" fill="#146BE2" stroke="#146BE2" stroke-width="1.5"/>
</svg>
